<svg data-v-0dd9719b="" version="1.0" xmlns="http://www.w3.org/2000/svg" xmlns:xlink="http://www.w3.org/1999/xlink" width="100%" height="100%" viewBox="0 0 340.000000 250.000000" preserveAspectRatio="xMidYMid meet" color-interpolation-filters="sRGB" style="margin: auto;"> <rect data-v-0dd9719b="" x="0" y="0" width="100%" height="100%" fill="#ffffff" fill-opacity="0" class="background"></rect> <rect data-v-0dd9719b="" x="0" y="0" width="100%" height="100%" fill="url(#watermark)" fill-opacity="1" class="watermarklayer"></rect> <g data-v-0dd9719b="" fill="#0a0619" class="iconblsvg-g iconsvg" transform="translate(23.7791748046875,89.82398986816406)"><g class="tp-name" transform="matrix(1,0,0,1,0,0)" opacity="1"><g data-gra="path-name" transform="translate(0, 5.196401243027424)"><g transform="scale(0.96)"><path d="M26.53-22.13Q26.53-19.56 25.32-17.31 24.1-15.06 21.51-13.68 18.91-12.3 14.97-12.3L14.97-12.3 9.59-12.3 9.59 0 3.17 0 3.17-32.04 14.97-32.04Q18.68-32.04 21.3-30.76 23.92-29.47 25.23-27.22 26.53-24.97 26.53-22.13L26.53-22.13ZM14.69-17.49Q17.35-17.49 18.64-18.71 19.92-19.92 19.92-22.13L19.92-22.13Q19.92-26.81 14.69-26.81L14.69-26.81 9.59-26.81 9.59-17.49 14.69-17.49ZM42.37 0.41Q38.7 0.41 35.76-1.22 32.82-2.85 31.15-5.83 29.47-8.81 29.47-12.72L29.47-12.72Q29.47-16.62 31.19-19.6 32.92-22.59 35.9-24.22 38.88-25.85 42.56-25.85L42.56-25.85Q46.23-25.85 49.21-24.22 52.2-22.59 53.92-19.6 55.64-16.62 55.64-12.72L55.64-12.72Q55.64-8.81 53.87-5.83 52.1-2.85 49.1-1.22 46.09 0.41 42.37 0.41L42.37 0.41ZM42.37-5.19Q44.12-5.19 45.65-6.04 47.19-6.89 48.11-8.58 49.03-10.28 49.03-12.72L49.03-12.72Q49.03-16.34 47.12-18.29 45.22-20.24 42.46-20.24L42.46-20.24Q39.71-20.24 37.85-18.29 35.99-16.34 35.99-12.72L35.99-12.72Q35.99-9.09 37.8-7.14 39.62-5.19 42.37-5.19L42.37-5.19ZM74.46-25.8Q79.01-25.8 81.81-22.93 84.61-20.06 84.61-14.92L84.61-14.92 84.61 0 78.18 0 78.18-14.05Q78.18-17.08 76.66-18.71 75.15-20.34 72.53-20.34L72.53-20.34Q69.87-20.34 68.33-18.71 66.79-17.08 66.79-14.05L66.79-14.05 66.79 0 60.37 0 60.37-25.43 66.79-25.43 66.79-22.26Q68.08-23.92 70.08-24.86 72.07-25.8 74.46-25.8L74.46-25.8ZM100.67-25.85Q103.52-25.85 105.68-24.72 107.83-23.6 109.07-21.81L109.07-21.81 109.07-25.43 115.55-25.43 115.55 0.18Q115.55 3.72 114.12 6.5 112.7 9.27 109.85 10.9 107.01 12.53 102.97 12.53L102.97 12.53Q97.55 12.53 94.09 10.01 90.62 7.48 90.16 3.12L90.16 3.12 96.54 3.12Q97.05 4.87 98.72 5.9 100.4 6.93 102.79 6.93L102.79 6.93Q105.59 6.93 107.33 5.26 109.07 3.58 109.07 0.18L109.07 0.18 109.07-3.76Q107.83-1.97 105.65-0.78 103.47 0.41 100.67 0.41L100.67 0.41Q97.46 0.41 94.8-1.24 92.13-2.89 90.6-5.9 89.06-8.91 89.06-12.81L89.06-12.81Q89.06-16.66 90.6-19.65 92.13-22.63 94.77-24.24 97.41-25.85 100.67-25.85L100.67-25.85ZM109.07-12.72Q109.07-15.06 108.16-16.73 107.24-18.41 105.68-19.3 104.12-20.2 102.33-20.2L102.33-20.2Q100.54-20.2 99.02-19.33 97.51-18.45 96.56-16.78 95.62-15.1 95.62-12.81L95.62-12.81Q95.62-10.51 96.56-8.79 97.51-7.07 99.04-6.15 100.58-5.23 102.33-5.23L102.33-5.23Q104.12-5.23 105.68-6.13 107.24-7.02 108.16-8.7 109.07-10.37 109.07-12.72L109.07-12.72Z" transform="translate(-3.1700000762939453, 32.09000015258789)"></path></g></g> <g transform="translate(119.38481140136719, 0)" mask="url(#42dde12b-618a-4490-ad22-04003aa8e805)"><g><g class="imagesvg"><g><rect fill="#0a0619" fill-opacity="0" stroke-width="2" x="0" y="0" width="53.23042081101759" height="53.23042081101759" class="image-rect"></rect> <svg filter="url(#colors8627453120)" x="0" y="0" width="53.23042081101759" height="53.23042081101759" filtersec="colorsf7309556230" class="image-svg-svg primary" style="overflow: visible;"><svg xmlns="http://www.w3.org/2000/svg" data-name="16" viewBox="0 0 32 32" x="0px" y="0px"><path d="M4,8C1.7944,8,0,6.2056,0,4S1.7944,0,4,0s4,1.7944,4,4-1.7944,4-4,4Zm0-6c-1.103,0-2,.897-2,2s.897,2,2,2,2-.897,2-2-.897-2-2-2Z"></path><path d="M16,15c-2.2056,0-4-1.7944-4-4s1.7944-4,4-4,4,1.7944,4,4-1.7944,4-4,4Zm0-6c-1.103,0-2,.897-2,2s.897,2,2,2,2-.897,2-2-.897-2-2-2Z"></path><path d="M28,21c-2.2056,0-4-1.7944-4-4s1.7944-4,4-4,4,1.7944,4,4-1.7944,4-4,4Zm0-6c-1.103,0-2,.897-2,2s.897,2,2,2,2-.897,2-2-.897-2-2-2Z"></path><path d="M4,20c-2.2056,0-4-1.7944-4-4s1.7944-4,4-4,4,1.7944,4,4-1.7944,4-4,4Zm0-6c-1.103,0-2,.897-2,2s.897,2,2,2,2-.897,2-2-.897-2-2-2Z"></path><path d="M16,27c-2.2056,0-4-1.7944-4-4s1.7944-4,4-4,4,1.7944,4,4-1.7944,4-4,4Zm0-6c-1.103,0-2,.897-2,2s.897,2,2,2,2-.897,2-2-.897-2-2-2Z"></path><path d="M4,32c-2.2056,0-4-1.7944-4-4s1.7944-4,4-4,4,1.7944,4,4-1.7944,4-4,4Zm0-6c-1.103,0-2,.897-2,2s.897,2,2,2,2-.897,2-2-.897-2-2-2Z"></path><path d="M13.4092,22.4902c-.1714,0-.3447-.0439-.5029-.1362l-6.8203-3.9805c-.4771-.2783-.6382-.8906-.3599-1.3677,.2783-.4785,.8906-.6382,1.3677-.3599l6.8203,3.9805c.4771,.2783,.6382,.8906,.3599,1.3677-.186,.3188-.521,.4961-.8647,.4961Z"></path><path d="M6.7705,27.8506c-.3911,0-.7627-.2314-.9233-.6147-.2129-.5098,.0278-1.0952,.5371-1.3086l6.46-2.7002c.5107-.2119,1.0952,.0283,1.3086,.5371,.2129,.5098-.0278,1.0952-.5371,1.3086l-6.46,2.7002c-.126,.0522-.2568,.0776-.3853,.0776Z"></path><path d="M6.7705,15.8506c-.3911,0-.7627-.2314-.9233-.6147-.2129-.5098,.0278-1.0952,.5371-1.3086l6.46-2.7002c.5107-.2104,1.0952,.0283,1.3086,.5371,.2129,.5098-.0278,1.0952-.5371,1.3086l-6.46,2.7002c-.126,.0522-.2568,.0776-.3853,.0776Z"></path><path d="M13.4092,10.4902c-.1714,0-.3447-.0439-.5029-.1362l-6.8203-3.9805c-.4771-.2783-.6382-.8906-.3599-1.3677,.2783-.478,.8906-.6372,1.3677-.3599l6.8203,3.9805c.4771,.2783,.6382,.8906,.3599,1.3677-.186,.3188-.521,.4961-.8647,.4961Z"></path><path d="M25.2393,16.8198c-.1558,0-.3135-.0361-.4614-.1133l-6.5801-3.4297c-.4897-.2554-.6797-.8594-.4243-1.3491,.2549-.4893,.8594-.6792,1.3491-.4243l6.5801,3.4297c.4897,.2554,.6797,.8594,.4243,1.3491-.1782,.3418-.5269,.5376-.8877,.5376Z"></path><path d="M18.7007,22.71c-.3726,0-.7305-.209-.9023-.5679-.2388-.498-.0283-1.0952,.4697-1.334l6.6997-3.21c.4966-.2383,1.0947-.0293,1.334,.4697,.2388,.498,.0283,1.0952-.4697,1.334l-6.6997,3.21c-.1392,.0669-.2866,.0981-.4316,.0981Z"></path></svg></svg> <defs><filter id="colors8627453120"><feColorMatrix type="matrix" values="0 0 0 0 0.0390625  0 0 0 0 0.0234375  0 0 0 0 0.09765625  0 0 0 1 0" class="icon-fecolormatrix"></feColorMatrix></filter> <filter id="colorsf7309556230"><feColorMatrix type="matrix" values="0 0 0 0 0.99609375  0 0 0 0 0.99609375  0 0 0 0 0.99609375  0 0 0 1 0" class="icon-fecolormatrix"></feColorMatrix></filter> <filter id="colorsb3406720389"><feColorMatrix type="matrix" values="0 0 0 0 0  0 0 0 0 0  0 0 0 0 0  0 0 0 1 0" class="icon-fecolormatrix"></feColorMatrix></filter></defs></g></g></g><rect v-gra="id" width="65.23041915893555" height="65.23041915893555" transform="translate(-6, -6)" style="pointer-events:none;" fill="url(#26v8Icnq2dku-2PqTJz2V)"></rect></g> <g data-gra="path-name-1" fill="#0a0619" transform="translate(184.11523056030273, 5.196401243027424)"><g transform="scale(0.96)"><path d="M30.57-32.09L30.57 0 24.15 0 9.59-21.99 9.59 0 3.17 0 3.17-32.09 9.59-32.09 24.15-10.05 24.15-32.09 30.57-32.09ZM55.5-26.86L43.34-26.86 43.34-18.82 54.12-18.82 54.12-13.73 43.34-13.73 43.34-5.23 55.5-5.23 55.5 0 36.91 0 36.91-32.09 55.5-32.09 55.5-26.86ZM83.09 0L80.98-6.11 68.22-6.11 66.11 0 59.36 0 70.88-32.09 78.36-32.09 89.89 0 83.09 0ZM69.96-11.25L79.23-11.25 74.6-24.65 69.96-11.25ZM92.5-32.04L116.01-32.04 116.01-26.86 107.47-26.86 107.47 0 101.04 0 101.04-26.86 92.5-26.86 92.5-32.04Z" transform="translate(-3.1700000762939453, 32.09000015258789)"></path></g></g></g> <g data-gra="path-slogan" fill-rule="" class="tp-slogan iconsvg-slogansvg" fill="#0a0619" transform="matrix(1,0,0,1,5,62.23041915893555)" opacity="1"><rect x="0" height="1" y="3.560800552368164" width="121.76142311096191"></rect> <rect height="1" y="3.560800552368164" width="121.76142311096191" x="160.6802272796631"></rect> <g transform="translate(124.76142311096191,0)"><g transform="scale(0.94)"><path d="M10.21-1.70L12.72-8.64L13.78-8.64L10.63 0L9.78 0L7.09-7.38L4.40 0L3.56 0L0.42-8.64L1.45-8.64L3.98-1.70L6.50-8.64L7.68-8.64L10.21-1.70ZM15.80 0L14.83 0L14.83-8.64L15.80-8.64L15.80 0ZM17.03-7.67L17.03-8.64L25.67-8.64L25.67-7.67L21.84-7.67L21.84 0L20.87 0L20.87-7.67L17.03-7.67ZM34.45-4.81L34.45-8.64L35.44-8.64L35.44 0L34.45 0L34.45-3.83L27.55-3.83L27.55 0L26.58 0L26.58-8.64L27.55-8.64L27.55-4.81L34.45-4.81Z" transform="translate(-0.42, 8.64)"></path></g></g></g></g><defs v-gra="od"></defs><defs v-gra="id"><filter id="c34ee1e1-6866-48ec-a48e-ecc33e5c50ab" filterUnits="userSpaceOnUse"><feColorMatrix type="matrix" values="0 0 0 0 0.99609375  0 0 0 0 0.99609375  0 0 0 0 0.99609375  0 0 0 1 0"></feColorMatrix></filter><linearGradient x1="0" y1="1" x2="0" y2="0" id="26v8Icnq2dku-2PqTJz2V"><stop offset="0%" stop-color="#fc62db"></stop><stop offset="50%" stop-color="#87ebff"></stop><stop offset="100%" stop-color="#175bec"></stop></linearGradient><filter id="42443b3f1de60f6b6fd3b6a9844b4764" filterUnits="objectBoundingBox"><feColorMatrix type="matrix" values="0 0 0 0 0.99609375  0 0 0 0 0.99609375  0 0 0 0 0.99609375  0 0 0 1 0"></feColorMatrix></filter></defs><mask v-gra="im" id="42dde12b-618a-4490-ad22-04003aa8e805"><g filter="url(#c34ee1e1-6866-48ec-a48e-ecc33e5c50ab)"><g><g class="imagesvg"><g><rect fill="#0a0619" fill-opacity="0" stroke-width="2" x="0" y="0" width="53.23042081101759" height="53.23042081101759" class="image-rect"></rect> <svg x="0" y="0" width="53.23042081101759" height="53.23042081101759" filtersec="colorsf7309556230" class="image-svg-svg primary" style="overflow: visible;"><svg xmlns="http://www.w3.org/2000/svg" data-name="16" viewBox="0 0 32 32" x="0px" y="0px"><path d="M4,8C1.7944,8,0,6.2056,0,4S1.7944,0,4,0s4,1.7944,4,4-1.7944,4-4,4Zm0-6c-1.103,0-2,.897-2,2s.897,2,2,2,2-.897,2-2-.897-2-2-2Z"></path><path d="M16,15c-2.2056,0-4-1.7944-4-4s1.7944-4,4-4,4,1.7944,4,4-1.7944,4-4,4Zm0-6c-1.103,0-2,.897-2,2s.897,2,2,2,2-.897,2-2-.897-2-2-2Z"></path><path d="M28,21c-2.2056,0-4-1.7944-4-4s1.7944-4,4-4,4,1.7944,4,4-1.7944,4-4,4Zm0-6c-1.103,0-2,.897-2,2s.897,2,2,2,2-.897,2-2-.897-2-2-2Z"></path><path d="M4,20c-2.2056,0-4-1.7944-4-4s1.7944-4,4-4,4,1.7944,4,4-1.7944,4-4,4Zm0-6c-1.103,0-2,.897-2,2s.897,2,2,2,2-.897,2-2-.897-2-2-2Z"></path><path d="M16,27c-2.2056,0-4-1.7944-4-4s1.7944-4,4-4,4,1.7944,4,4-1.7944,4-4,4Zm0-6c-1.103,0-2,.897-2,2s.897,2,2,2,2-.897,2-2-.897-2-2-2Z"></path><path d="M4,32c-2.2056,0-4-1.7944-4-4s1.7944-4,4-4,4,1.7944,4,4-1.7944,4-4,4Zm0-6c-1.103,0-2,.897-2,2s.897,2,2,2,2-.897,2-2-.897-2-2-2Z"></path><path d="M13.4092,22.4902c-.1714,0-.3447-.0439-.5029-.1362l-6.8203-3.9805c-.4771-.2783-.6382-.8906-.3599-1.3677,.2783-.4785,.8906-.6382,1.3677-.3599l6.8203,3.9805c.4771,.2783,.6382,.8906,.3599,1.3677-.186,.3188-.521,.4961-.8647,.4961Z"></path><path d="M6.7705,27.8506c-.3911,0-.7627-.2314-.9233-.6147-.2129-.5098,.0278-1.0952,.5371-1.3086l6.46-2.7002c.5107-.2119,1.0952,.0283,1.3086,.5371,.2129,.5098-.0278,1.0952-.5371,1.3086l-6.46,2.7002c-.126,.0522-.2568,.0776-.3853,.0776Z"></path><path d="M6.7705,15.8506c-.3911,0-.7627-.2314-.9233-.6147-.2129-.5098,.0278-1.0952,.5371-1.3086l6.46-2.7002c.5107-.2104,1.0952,.0283,1.3086,.5371,.2129,.5098-.0278,1.0952-.5371,1.3086l-6.46,2.7002c-.126,.0522-.2568,.0776-.3853,.0776Z"></path><path d="M13.4092,10.4902c-.1714,0-.3447-.0439-.5029-.1362l-6.8203-3.9805c-.4771-.2783-.6382-.8906-.3599-1.3677,.2783-.478,.8906-.6372,1.3677-.3599l6.8203,3.9805c.4771,.2783,.6382,.8906,.3599,1.3677-.186,.3188-.521,.4961-.8647,.4961Z"></path><path d="M25.2393,16.8198c-.1558,0-.3135-.0361-.4614-.1133l-6.5801-3.4297c-.4897-.2554-.6797-.8594-.4243-1.3491,.2549-.4893,.8594-.6792,1.3491-.4243l6.5801,3.4297c.4897,.2554,.6797,.8594,.4243,1.3491-.1782,.3418-.5269,.5376-.8877,.5376Z"></path><path d="M18.7007,22.71c-.3726,0-.7305-.209-.9023-.5679-.2388-.498-.0283-1.0952,.4697-1.334l6.6997-3.21c.4966-.2383,1.0947-.0293,1.334,.4697,.2388,.498,.0283,1.0952-.4697,1.334l-6.6997,3.21c-.1392,.0669-.2866,.0981-.4316,.0981Z"></path></svg></svg> <defs><filter id="colors8627453120"><feColorMatrix type="matrix" values="0 0 0 0 0.0390625  0 0 0 0 0.0234375  0 0 0 0 0.09765625  0 0 0 1 0" class="icon-fecolormatrix"></feColorMatrix></filter> <filter id="colorsf7309556230"><feColorMatrix type="matrix" values="0 0 0 0 0.99609375  0 0 0 0 0.99609375  0 0 0 0 0.99609375  0 0 0 1 0" class="icon-fecolormatrix"></feColorMatrix></filter> <filter id="colorsb3406720389"><feColorMatrix type="matrix" values="0 0 0 0 0  0 0 0 0 0  0 0 0 0 0  0 0 0 1 0" class="icon-fecolormatrix"></feColorMatrix></filter></defs></g></g></g></g></mask></svg>